<?xml version="1.0" encoding="UTF-8" standalone="no"?>
<svg
   xmlns:dc="http://purl.org/dc/elements/1.1/"
   xmlns:cc="http://creativecommons.org/ns#"
   xmlns:rdf="http://www.w3.org/1999/02/22-rdf-syntax-ns#"
   xmlns:svg="http://www.w3.org/2000/svg"
   xmlns="http://www.w3.org/2000/svg"
   xmlns:xlink="http://www.w3.org/1999/xlink"
   xmlns:sodipodi="http://sodipodi.sourceforge.net/DTD/sodipodi-0.dtd"
   xmlns:inkscape="http://www.inkscape.org/namespaces/inkscape"
   width="111.89351mm"
   height="136.42735mm"
   viewBox="0 0 111.89351 136.42735"
   version="1.1"
   id="svg8"
   inkscape:version="1.0.2 (e86c870879, 2021-01-15, custom)"
   sodipodi:docname="capi_escuro.svg"
   inkscape:export-filename="D:\Users\anxol\Desktop\2022.png"
   inkscape:export-xdpi="96"
   inkscape:export-ydpi="96">
  <defs
     id="defs2">
    <linearGradient
       inkscape:collect="always"
       id="linearGradient839">
      <stop
         style="stop-color:#fefefe;stop-opacity:1;"
         offset="0"
         id="stop835" />
      <stop
         style="stop-color:#fefefe;stop-opacity:0;"
         offset="1"
         id="stop837" />
    </linearGradient>
    <rect
       x="-35.396057"
       y="138.35017"
       width="3.7902925"
       height="3.419503"
       id="rect837" />
    <linearGradient
       inkscape:collect="always"
       xlink:href="#linearGradient839"
       id="linearGradient841"
       x1="79.91435"
       y1="144.16163"
       x2="132.4515"
       y2="144.16163"
       gradientUnits="userSpaceOnUse" />
  </defs>
  <sodipodi:namedview
     id="base"
     pagecolor="#ffffff"
     bordercolor="#666666"
     borderopacity="1.0"
     inkscape:pageopacity="0.0"
     inkscape:pageshadow="2"
     inkscape:zoom="1.4684163"
     inkscape:cx="211.4523"
     inkscape:cy="264.74396"
     inkscape:document-units="mm"
     inkscape:current-layer="layer1"
     inkscape:document-rotation="0"
     showgrid="false"
     inkscape:window-width="1278"
     inkscape:window-height="668"
     inkscape:window-x="2560"
     inkscape:window-y="0"
     inkscape:window-maximized="0" />
  <metadata
     id="metadata5">
    <rdf:RDF>
      <cc:Work
         rdf:about="">
        <dc:format>image/svg+xml</dc:format>
        <dc:type
           rdf:resource="http://purl.org/dc/dcmitype/StillImage" />
        <dc:title />
      </cc:Work>
    </rdf:RDF>
  </metadata>
  <g
     inkscape:label="Layer 1"
     inkscape:groupmode="layer"
     id="layer1"
     transform="translate(-50.236176,-75.947975)">
    <text
       xml:space="preserve"
       id="text835"
       style="font-size:1.41111px;line-height:1.25;font-family:'Lingua Franca';-inkscape-font-specification:'Lingua Franca';text-align:center;letter-spacing:0px;white-space:pre;shape-inside:url(#rect837);" />
    <text
       xml:space="preserve"
       style="font-size:1.38157px;line-height:1.25;font-family:'Lingua Franca';-inkscape-font-specification:'Lingua Franca';text-align:center;letter-spacing:0px;text-anchor:middle;fill:#cccccc;fill-opacity:1;stroke:none;stroke-width:0.744534"
       x="107.16698"
       y="149.5536"
       id="text843"
       inkscape:export-xdpi="96"
       inkscape:export-ydpi="96"
       inkscape:export-filename="D:\Users\anxol\Desktop\1.6.png"><tspan
         sodipodi:role="line"
         id="tspan841"
         x="107.16698"
         y="149.5536"
         style="font-style:normal;font-variant:normal;font-weight:normal;font-stretch:normal;font-size:24.8683px;font-family:'Lingua Franca';-inkscape-font-specification:'Lingua Franca, Normal';font-variant-ligatures:normal;font-variant-caps:normal;font-variant-numeric:normal;font-variant-east-asian:normal;fill:#cccccc;fill-opacity:1;stroke:none;stroke-width:0.744534"
         dy="0 0">2x00</tspan></text>
    <path
       id="rect837-3-6-6"
       style="color:#000000;font-style:normal;font-variant:normal;font-weight:normal;font-stretch:normal;font-size:medium;line-height:normal;font-family:sans-serif;font-variant-ligatures:normal;font-variant-position:normal;font-variant-caps:normal;font-variant-numeric:normal;font-variant-alternates:normal;font-variant-east-asian:normal;font-feature-settings:normal;font-variation-settings:normal;text-indent:0;text-align:start;text-decoration:none;text-decoration-line:none;text-decoration-style:solid;text-decoration-color:#000000;letter-spacing:normal;word-spacing:normal;text-transform:none;writing-mode:lr-tb;direction:ltr;text-orientation:mixed;dominant-baseline:auto;baseline-shift:baseline;text-anchor:start;white-space:normal;shape-padding:0;shape-margin:0;inline-size:0;clip-rule:nonzero;display:inline;overflow:visible;visibility:visible;isolation:auto;mix-blend-mode:normal;color-interpolation:sRGB;color-interpolation-filters:linearRGB;solid-color:#000000;solid-opacity:1;vector-effect:none;fill:#cccccc;fill-opacity:1;fill-rule:evenodd;stroke:none;stroke-width:1.36744;stroke-linecap:butt;stroke-linejoin:miter;stroke-miterlimit:4;stroke-dasharray:none;stroke-dashoffset:0;stroke-opacity:1;color-rendering:auto;image-rendering:auto;shape-rendering:auto;text-rendering:auto;enable-background:accumulate;stop-color:#000000"
       d="m 83.603887,116.01391 c -4.393632,0 -7.967431,3.57591 -7.967431,7.96957 v 35.48913 c 0,4.04123 3.024064,7.38827 6.92796,7.89961 -0.47008,1.47869 -1.308465,3.96696 -2.475385,6.65871 -0.847174,1.95419 -1.888745,4.02076 -2.566529,6.0284 -0.636278,1.88472 -1.030259,3.84209 -0.235316,5.59662 v -0.32433 l 0.17101,0.66494 c -0.06219,-0.11265 -0.119107,-0.22616 -0.17101,-0.34061 v 0.18797 l 0.333547,0.38726 c 1.081985,1.25016 2.752359,1.61644 4.239144,1.37583 1.48682,-0.24061 2.942555,-0.94672 4.387577,-1.84012 2.890054,-1.78679 5.725706,-4.39703 7.604195,-6.19937 3.962792,-3.80214 7.345951,-7.45331 11.185521,-12.12535 h 2.33052 22.71015 c 4.39365,0 7.96956,-3.57592 7.96956,-7.96956 v -35.48913 c 0,-4.39366 -3.57591,-7.96957 -7.96956,-7.96957 z m 0,2.41673 h 46.473953 c 3.09634,0 5.55282,2.45648 5.55282,5.55284 v 35.48913 c 0,3.09635 -2.45648,5.55282 -5.55282,5.55282 H 107.285 c -0.19651,-0.008 -1.83211,-0.092 -2.96145,0.13674 -0.20028,0.0405 -0.41358,0.115 -0.56896,0.17555 -0.98447,0.38355 -2.47184,2.1044 -2.47184,2.1044 h 0.004 l -0.54694,0.61053 c -2.910091,3.4052 -5.673716,6.5344 -8.7935,9.52771 -1.830365,1.75616 -4.600913,4.26982 -7.147024,5.84397 -1.273061,0.78707 -2.49253,1.32007 -3.378463,1.46346 -0.818354,0.13228 -1.189757,-0.0224 -1.583596,-0.4247 -0.306147,-0.73293 -0.245713,-1.90938 0.298906,-3.52264 0.58427,-1.73065 1.592479,-3.76464 2.481029,-5.81427 1.591987,-3.67224 2.358109,-6.33263 2.622375,-7.23532 l 0.109484,-0.44874 c 1.2e-5,0 0.203773,-0.809 -0.236019,-1.44723 -0.396516,-0.5702 -1.093321,-0.89363 -1.836573,-0.98577 -2.938366,-0.16783 -5.220681,-2.5514 -5.220681,-5.53656 v -35.48914 c 0,-3.09635 2.453653,-5.55283 5.549992,-5.55283 z"
       sodipodi:nodetypes="ssscssccccccsssccsssssssssscsscccssscssccccssss" />
  </g>
</svg>
