<?xml version="1.0" encoding="UTF-8" standalone="no"?>
<svg
   xmlns:dc="http://purl.org/dc/elements/1.1/"
   xmlns:cc="http://creativecommons.org/ns#"
   xmlns:rdf="http://www.w3.org/1999/02/22-rdf-syntax-ns#"
   xmlns:svg="http://www.w3.org/2000/svg"
   xmlns="http://www.w3.org/2000/svg"
   xmlns:sodipodi="http://sodipodi.sourceforge.net/DTD/sodipodi-0.dtd"
   xmlns:inkscape="http://www.inkscape.org/namespaces/inkscape"
   width="110.87629mm"
   height="135.46666mm"
   viewBox="0 0 110.87629 135.46666"
   version="1.1"
   id="svg8"
   inkscape:version="1.0.2 (e86c870879, 2021-01-15, custom)"
   sodipodi:docname="subs.svg"
   inkscape:export-filename="D:\Users\anxol\Pictures\subs.png"
   inkscape:export-xdpi="96"
   inkscape:export-ydpi="96">
  <defs
     id="defs2" />
  <sodipodi:namedview
     id="base"
     pagecolor="#ffffff"
     bordercolor="#666666"
     borderopacity="1.0"
     inkscape:pageopacity="0.0"
     inkscape:pageshadow="2"
     inkscape:zoom="0.70710678"
     inkscape:cx="154.41001"
     inkscape:cy="134.68701"
     inkscape:document-units="mm"
     inkscape:current-layer="layer1"
     inkscape:document-rotation="0"
     showgrid="false"
     inkscape:window-width="2560"
     inkscape:window-height="1377"
     inkscape:window-x="2552"
     inkscape:window-y="-8"
     inkscape:window-maximized="1" />
  <metadata
     id="metadata5">
    <rdf:RDF>
      <cc:Work
         rdf:about="">
        <dc:format>image/svg+xml</dc:format>
        <dc:type
           rdf:resource="http://purl.org/dc/dcmitype/StillImage" />
        <dc:title />
      </cc:Work>
    </rdf:RDF>
  </metadata>
  <g
     inkscape:label="Layer 1"
     inkscape:groupmode="layer"
     id="layer1"
     transform="translate(-50.585904,-76.428327)">
    <rect
       style="fill:#000000;fill-opacity:1;fill-rule:evenodd;stroke-width:0.429476"
       id="rect835"
       width="84.077148"
       height="4.6709528"
       x="63.794754"
       y="121.98244" />
    <path
       id="rect837-3-6-6"
       style="color:#000000;font-style:normal;font-variant:normal;font-weight:normal;font-stretch:normal;font-size:medium;line-height:normal;font-family:sans-serif;font-variant-ligatures:normal;font-variant-position:normal;font-variant-caps:normal;font-variant-numeric:normal;font-variant-alternates:normal;font-variant-east-asian:normal;font-feature-settings:normal;font-variation-settings:normal;text-indent:0;text-align:start;text-decoration:none;text-decoration-line:none;text-decoration-style:solid;text-decoration-color:#000000;letter-spacing:normal;word-spacing:normal;text-transform:none;writing-mode:lr-tb;direction:ltr;text-orientation:mixed;dominant-baseline:auto;baseline-shift:baseline;text-anchor:start;white-space:normal;shape-padding:0;shape-margin:0;inline-size:0;clip-rule:nonzero;display:inline;overflow:visible;visibility:visible;isolation:auto;mix-blend-mode:normal;color-interpolation:sRGB;color-interpolation-filters:linearRGB;solid-color:#000000;solid-opacity:1;vector-effect:none;fill:#000000;fill-opacity:1;fill-rule:evenodd;stroke:none;stroke-width:1.1653;stroke-linecap:butt;stroke-linejoin:miter;stroke-miterlimit:4;stroke-dasharray:none;stroke-dashoffset:0;stroke-opacity:1;color-rendering:auto;image-rendering:auto;shape-rendering:auto;text-rendering:auto;enable-background:accumulate;stop-color:#000000"
       d="m 86.030476,131.43286 c -3.744141,0 -6.789639,3.0473 -6.789639,6.79146 v 30.24293 c 0,3.44383 2.577024,6.29609 5.903825,6.73184 -0.400583,1.2601 -1.115039,3.38054 -2.109459,5.67438 -0.721938,1.66531 -1.609536,3.42639 -2.187127,5.13725 -0.542225,1.60611 -0.87796,3.27413 -0.200536,4.7693 v -0.27639 l 0.145732,0.56665 c -0.05302,-0.096 -0.101502,-0.19273 -0.145732,-0.29026 v 0.16018 l 0.28424,0.33001 c 0.922041,1.06536 2.345491,1.37749 3.612497,1.17245 1.26703,-0.20504 2.507572,-0.80677 3.73898,-1.5681 2.462824,-1.52266 4.879294,-3.74704 6.480101,-5.28295 3.376982,-3.24008 6.260022,-6.35152 9.532002,-10.33291 h 1.98601 19.35301 c 3.74415,0 6.79145,-3.04731 6.79145,-6.79145 v -30.24293 c 0,-3.74416 -3.0473,-6.79146 -6.79145,-6.79146 z m 0,2.05947 h 39.603904 c 2.63862,0 4.73197,2.09335 4.73197,4.73199 v 30.24293 c 0,2.63863 -2.09335,4.73197 -4.73197,4.73197 H 106.2109 c -0.16746,-0.007 -1.56127,-0.0784 -2.52367,0.11652 -0.17067,0.0345 -0.35244,0.098 -0.48485,0.1496 -0.83894,0.32685 -2.10644,1.79332 -2.10644,1.79332 h 0.003 l -0.46609,0.52028 c -2.479895,2.90182 -4.834988,5.56844 -7.493585,8.11927 -1.559787,1.49655 -3.920777,3.63863 -6.090507,4.98008 -1.084869,0.67072 -2.124073,1.12493 -2.879047,1.24712 -0.697373,0.11273 -1.01388,-0.0191 -1.349498,-0.36192 -0.260887,-0.62458 -0.209392,-1.62712 0.254723,-3.0019 0.497897,-1.47482 1.357073,-3.20813 2.114272,-4.95477 1.356643,-3.12939 2.009512,-5.39651 2.234718,-6.16576 l 0.09334,-0.3824 c 1.2e-5,0 0.173653,-0.68941 -0.20113,-1.23329 -0.337902,-0.48591 -0.931704,-0.76153 -1.565078,-0.84005 -2.504008,-0.14302 -4.448938,-2.17424 -4.448938,-4.71812 v -30.24293 c 0,-2.63863 2.090943,-4.73198 4.729564,-4.73198 z"
       sodipodi:nodetypes="ssscssccccccsssccsssssssssscsscccssscssccccssss" />
    <text
       xml:space="preserve"
       style="font-size:35.653px;line-height:1.25;font-family:'Lingua Franca';-inkscape-font-specification:'Lingua Franca';text-align:center;letter-spacing:0px;text-anchor:middle;stroke-width:0.185693"
       x="106.60538"
       y="164.27942"
       id="text5656"><tspan
         sodipodi:role="line"
         id="tspan5654"
         x="106.60538"
         y="164.27942"
         style="stroke-width:0.185693">Aa</tspan></text>
  </g>
</svg>
